<mxfile host="app.diagrams.net" modified="2023-01-10T19:37:53.880Z" agent="5.0 (Windows NT 10.0; Win64; x64) AppleWebKit/537.36 (KHTML, like Gecko) Chrome/108.0.0.0 Safari/537.36" etag="AoH5s5sS-SFHIbHmLkBU" version="20.8.3" type="github">
  <diagram id="WDzS4ZiVjdlWBc4Naw3w" name="Seite-1">
    <mxGraphModel dx="1035" dy="569" grid="1" gridSize="10" guides="1" tooltips="1" connect="1" arrows="1" fold="1" page="1" pageScale="1" pageWidth="827" pageHeight="1169" math="0" shadow="0">
      <root>
        <mxCell id="0" />
        <mxCell id="1" parent="0" />
        <mxCell id="kdA-taJ_aWkf9tYC6nDx-21" value="" style="endArrow=none;html=1;rounded=0;" parent="1" edge="1">
          <mxGeometry width="50" height="50" relative="1" as="geometry">
            <mxPoint x="160" y="200" as="sourcePoint" />
            <mxPoint x="320" y="200" as="targetPoint" />
            <Array as="points">
              <mxPoint x="240" y="200" />
              <mxPoint x="240" y="160" />
              <mxPoint x="320" y="160" />
            </Array>
          </mxGeometry>
        </mxCell>
        <mxCell id="kdA-taJ_aWkf9tYC6nDx-22" value="" style="endArrow=none;html=1;rounded=0;" parent="1" edge="1">
          <mxGeometry width="50" height="50" relative="1" as="geometry">
            <mxPoint x="320" y="200" as="sourcePoint" />
            <mxPoint x="480" y="200" as="targetPoint" />
            <Array as="points">
              <mxPoint x="400" y="200" />
              <mxPoint x="400" y="160" />
              <mxPoint x="480" y="160" />
            </Array>
          </mxGeometry>
        </mxCell>
        <mxCell id="kdA-taJ_aWkf9tYC6nDx-23" value="" style="endArrow=none;html=1;rounded=0;" parent="1" edge="1">
          <mxGeometry width="50" height="50" relative="1" as="geometry">
            <mxPoint x="480" y="200" as="sourcePoint" />
            <mxPoint x="640" y="200" as="targetPoint" />
            <Array as="points">
              <mxPoint x="560" y="200" />
              <mxPoint x="560" y="160" />
              <mxPoint x="640" y="160" />
            </Array>
          </mxGeometry>
        </mxCell>
        <mxCell id="kdA-taJ_aWkf9tYC6nDx-24" value="" style="endArrow=none;html=1;rounded=0;" parent="1" edge="1">
          <mxGeometry width="50" height="50" relative="1" as="geometry">
            <mxPoint x="640" y="200" as="sourcePoint" />
            <mxPoint x="800" y="200" as="targetPoint" />
            <Array as="points">
              <mxPoint x="720" y="200" />
              <mxPoint x="720" y="160" />
              <mxPoint x="800" y="160" />
            </Array>
          </mxGeometry>
        </mxCell>
        <mxCell id="kdA-taJ_aWkf9tYC6nDx-25" value="" style="endArrow=none;html=1;rounded=0;" parent="1" edge="1">
          <mxGeometry width="50" height="50" relative="1" as="geometry">
            <mxPoint x="800" y="200" as="sourcePoint" />
            <mxPoint x="960" y="200" as="targetPoint" />
            <Array as="points">
              <mxPoint x="880" y="200" />
              <mxPoint x="880" y="160" />
              <mxPoint x="960" y="160" />
            </Array>
          </mxGeometry>
        </mxCell>
        <mxCell id="kdA-taJ_aWkf9tYC6nDx-31" value="" style="endArrow=none;html=1;rounded=0;" parent="1" edge="1">
          <mxGeometry width="50" height="50" relative="1" as="geometry">
            <mxPoint x="160" y="280" as="sourcePoint" />
            <mxPoint x="330" y="280" as="targetPoint" />
            <Array as="points">
              <mxPoint x="240" y="280" />
              <mxPoint x="240" y="240" />
              <mxPoint x="330" y="240" />
            </Array>
          </mxGeometry>
        </mxCell>
        <mxCell id="kdA-taJ_aWkf9tYC6nDx-32" value="" style="endArrow=none;html=1;rounded=0;" parent="1" edge="1">
          <mxGeometry width="50" height="50" relative="1" as="geometry">
            <mxPoint x="330" y="280" as="sourcePoint" />
            <mxPoint x="510" y="280" as="targetPoint" />
            <Array as="points">
              <mxPoint x="420" y="280" />
              <mxPoint x="420" y="240" />
              <mxPoint x="510" y="240" />
            </Array>
          </mxGeometry>
        </mxCell>
        <mxCell id="kdA-taJ_aWkf9tYC6nDx-33" value="" style="endArrow=none;html=1;rounded=0;" parent="1" edge="1">
          <mxGeometry width="50" height="50" relative="1" as="geometry">
            <mxPoint x="510" y="280" as="sourcePoint" />
            <mxPoint x="690" y="280" as="targetPoint" />
            <Array as="points">
              <mxPoint x="600" y="280" />
              <mxPoint x="600" y="240" />
              <mxPoint x="690" y="240" />
            </Array>
          </mxGeometry>
        </mxCell>
        <mxCell id="kdA-taJ_aWkf9tYC6nDx-34" value="" style="endArrow=none;html=1;rounded=0;" parent="1" edge="1">
          <mxGeometry width="50" height="50" relative="1" as="geometry">
            <mxPoint x="690" y="280" as="sourcePoint" />
            <mxPoint x="870" y="280" as="targetPoint" />
            <Array as="points">
              <mxPoint x="780" y="280" />
              <mxPoint x="780" y="240" />
              <mxPoint x="870" y="240" />
            </Array>
          </mxGeometry>
        </mxCell>
        <mxCell id="kdA-taJ_aWkf9tYC6nDx-35" value="" style="endArrow=none;html=1;rounded=0;" parent="1" edge="1">
          <mxGeometry width="50" height="50" relative="1" as="geometry">
            <mxPoint x="870" y="280" as="sourcePoint" />
            <mxPoint x="1050" y="280" as="targetPoint" />
            <Array as="points">
              <mxPoint x="960" y="280" />
              <mxPoint x="960" y="240" />
              <mxPoint x="1050" y="240" />
            </Array>
          </mxGeometry>
        </mxCell>
        <mxCell id="kdA-taJ_aWkf9tYC6nDx-36" value="" style="endArrow=none;html=1;rounded=0;" parent="1" edge="1">
          <mxGeometry width="50" height="50" relative="1" as="geometry">
            <mxPoint x="960" y="200" as="sourcePoint" />
            <mxPoint x="1120" y="200" as="targetPoint" />
            <Array as="points">
              <mxPoint x="1040" y="200" />
              <mxPoint x="1040" y="160" />
              <mxPoint x="1120" y="160" />
            </Array>
          </mxGeometry>
        </mxCell>
        <mxCell id="kdA-taJ_aWkf9tYC6nDx-37" value="" style="endArrow=none;html=1;rounded=0;" parent="1" edge="1">
          <mxGeometry width="50" height="50" relative="1" as="geometry">
            <mxPoint x="1120" y="200" as="sourcePoint" />
            <mxPoint x="1280" y="200" as="targetPoint" />
            <Array as="points">
              <mxPoint x="1200" y="200" />
              <mxPoint x="1200" y="160" />
              <mxPoint x="1280" y="160" />
            </Array>
          </mxGeometry>
        </mxCell>
        <mxCell id="kdA-taJ_aWkf9tYC6nDx-38" value="" style="endArrow=none;html=1;rounded=0;" parent="1" edge="1">
          <mxGeometry width="50" height="50" relative="1" as="geometry">
            <mxPoint x="1280" y="200" as="sourcePoint" />
            <mxPoint x="1440" y="200" as="targetPoint" />
            <Array as="points">
              <mxPoint x="1360" y="200" />
              <mxPoint x="1360" y="160" />
              <mxPoint x="1440" y="160" />
            </Array>
          </mxGeometry>
        </mxCell>
        <mxCell id="kdA-taJ_aWkf9tYC6nDx-39" value="" style="endArrow=none;html=1;rounded=0;" parent="1" edge="1">
          <mxGeometry width="50" height="50" relative="1" as="geometry">
            <mxPoint x="1440" y="200" as="sourcePoint" />
            <mxPoint x="1600" y="200" as="targetPoint" />
            <Array as="points">
              <mxPoint x="1520" y="200" />
              <mxPoint x="1520" y="160" />
              <mxPoint x="1600" y="160" />
            </Array>
          </mxGeometry>
        </mxCell>
        <mxCell id="kdA-taJ_aWkf9tYC6nDx-44" value="" style="endArrow=none;html=1;rounded=0;" parent="1" edge="1">
          <mxGeometry width="50" height="50" relative="1" as="geometry">
            <mxPoint x="1051" y="280" as="sourcePoint" />
            <mxPoint x="1231" y="280" as="targetPoint" />
            <Array as="points">
              <mxPoint x="1141" y="280" />
              <mxPoint x="1141" y="240" />
              <mxPoint x="1231" y="240" />
            </Array>
          </mxGeometry>
        </mxCell>
        <mxCell id="kdA-taJ_aWkf9tYC6nDx-45" value="" style="endArrow=none;html=1;rounded=0;" parent="1" edge="1">
          <mxGeometry width="50" height="50" relative="1" as="geometry">
            <mxPoint x="1231" y="280" as="sourcePoint" />
            <mxPoint x="1411" y="280" as="targetPoint" />
            <Array as="points">
              <mxPoint x="1321" y="280" />
              <mxPoint x="1321" y="240" />
              <mxPoint x="1411" y="240" />
            </Array>
          </mxGeometry>
        </mxCell>
        <mxCell id="kdA-taJ_aWkf9tYC6nDx-46" value="" style="endArrow=none;html=1;rounded=0;" parent="1" edge="1">
          <mxGeometry width="50" height="50" relative="1" as="geometry">
            <mxPoint x="1410" y="280" as="sourcePoint" />
            <mxPoint x="1590" y="280" as="targetPoint" />
            <Array as="points">
              <mxPoint x="1500" y="280" />
              <mxPoint x="1500" y="240" />
              <mxPoint x="1590" y="240" />
            </Array>
          </mxGeometry>
        </mxCell>
        <mxCell id="kdA-taJ_aWkf9tYC6nDx-47" value="" style="endArrow=none;html=1;rounded=0;" parent="1" edge="1">
          <mxGeometry width="50" height="50" relative="1" as="geometry">
            <mxPoint x="160" y="360" as="sourcePoint" />
            <mxPoint x="1750" y="320" as="targetPoint" />
            <Array as="points">
              <mxPoint x="240" y="360" />
              <mxPoint x="240" y="320" />
              <mxPoint x="960" y="320" />
              <mxPoint x="960" y="360" />
              <mxPoint x="1680" y="360" />
              <mxPoint x="1680" y="320" />
            </Array>
          </mxGeometry>
        </mxCell>
        <mxCell id="kdA-taJ_aWkf9tYC6nDx-48" value="" style="endArrow=none;dashed=1;html=1;rounded=0;fillColor=#f8cecc;strokeColor=#b85450;strokeWidth=2;" parent="1" edge="1">
          <mxGeometry width="50" height="50" relative="1" as="geometry">
            <mxPoint x="240" y="360" as="sourcePoint" />
            <mxPoint x="240" y="160" as="targetPoint" />
          </mxGeometry>
        </mxCell>
        <mxCell id="kdA-taJ_aWkf9tYC6nDx-49" value="" style="endArrow=none;html=1;rounded=0;" parent="1" edge="1">
          <mxGeometry width="50" height="50" relative="1" as="geometry">
            <mxPoint x="1600" y="200" as="sourcePoint" />
            <mxPoint x="1760" y="200" as="targetPoint" />
            <Array as="points">
              <mxPoint x="1680" y="200" />
              <mxPoint x="1680" y="160" />
              <mxPoint x="1760" y="160" />
            </Array>
          </mxGeometry>
        </mxCell>
        <mxCell id="kdA-taJ_aWkf9tYC6nDx-50" value="" style="endArrow=none;html=1;rounded=0;" parent="1" edge="1">
          <mxGeometry width="50" height="50" relative="1" as="geometry">
            <mxPoint x="1590" y="280" as="sourcePoint" />
            <mxPoint x="1750" y="240" as="targetPoint" />
            <Array as="points">
              <mxPoint x="1680" y="280" />
              <mxPoint x="1680" y="240" />
              <mxPoint x="1720" y="240" />
            </Array>
          </mxGeometry>
        </mxCell>
        <mxCell id="kdA-taJ_aWkf9tYC6nDx-51" value="" style="endArrow=none;dashed=1;html=1;rounded=0;fillColor=#f8cecc;strokeColor=#b85450;strokeWidth=2;" parent="1" edge="1">
          <mxGeometry width="50" height="50" relative="1" as="geometry">
            <mxPoint x="420" y="360" as="sourcePoint" />
            <mxPoint x="420" y="160" as="targetPoint" />
          </mxGeometry>
        </mxCell>
        <mxCell id="kdA-taJ_aWkf9tYC6nDx-52" value="" style="endArrow=none;dashed=1;html=1;rounded=0;fillColor=#f8cecc;strokeColor=#b85450;strokeWidth=2;" parent="1" edge="1">
          <mxGeometry width="50" height="50" relative="1" as="geometry">
            <mxPoint x="610" y="360" as="sourcePoint" />
            <mxPoint x="610" y="160" as="targetPoint" />
          </mxGeometry>
        </mxCell>
        <mxCell id="kdA-taJ_aWkf9tYC6nDx-53" value="" style="endArrow=none;dashed=1;html=1;rounded=0;fillColor=#f8cecc;strokeColor=#b85450;strokeWidth=2;" parent="1" edge="1">
          <mxGeometry width="50" height="50" relative="1" as="geometry">
            <mxPoint x="790" y="360" as="sourcePoint" />
            <mxPoint x="790" y="160" as="targetPoint" />
          </mxGeometry>
        </mxCell>
        <mxCell id="kdA-taJ_aWkf9tYC6nDx-54" value="" style="endArrow=none;dashed=1;html=1;rounded=0;fillColor=#f8cecc;strokeColor=#b85450;strokeWidth=2;" parent="1" edge="1">
          <mxGeometry width="50" height="50" relative="1" as="geometry">
            <mxPoint x="970" y="360" as="sourcePoint" />
            <mxPoint x="970" y="160" as="targetPoint" />
          </mxGeometry>
        </mxCell>
        <mxCell id="gFEzy7Q-jeZhdHL1lZaV-1" value="" style="endArrow=classic;startArrow=classic;html=1;rounded=0;strokeWidth=0;" edge="1" parent="1">
          <mxGeometry width="50" height="50" relative="1" as="geometry">
            <mxPoint x="400" y="120" as="sourcePoint" />
            <mxPoint x="420" y="120" as="targetPoint" />
            <Array as="points">
              <mxPoint x="404" y="120" />
            </Array>
          </mxGeometry>
        </mxCell>
        <mxCell id="gFEzy7Q-jeZhdHL1lZaV-4" value="" style="endArrow=none;dashed=1;html=1;rounded=0;strokeWidth=0;" edge="1" parent="1">
          <mxGeometry width="50" height="50" relative="1" as="geometry">
            <mxPoint x="340" y="240" as="sourcePoint" />
            <mxPoint x="340" y="140" as="targetPoint" />
          </mxGeometry>
        </mxCell>
        <mxCell id="gFEzy7Q-jeZhdHL1lZaV-5" value="" style="endArrow=none;dashed=1;html=1;rounded=0;strokeWidth=0;" edge="1" parent="1">
          <mxGeometry width="50" height="50" relative="1" as="geometry">
            <mxPoint x="320" y="240" as="sourcePoint" />
            <mxPoint x="320" y="140" as="targetPoint" />
          </mxGeometry>
        </mxCell>
        <mxCell id="gFEzy7Q-jeZhdHL1lZaV-6" value="" style="endArrow=none;dashed=1;html=1;rounded=0;strokeWidth=1;" edge="1" parent="1">
          <mxGeometry width="50" height="50" relative="1" as="geometry">
            <mxPoint x="400" y="280" as="sourcePoint" />
            <mxPoint x="400" y="120" as="targetPoint" />
          </mxGeometry>
        </mxCell>
        <mxCell id="gFEzy7Q-jeZhdHL1lZaV-7" value="" style="endArrow=none;dashed=1;html=1;rounded=0;strokeWidth=1;" edge="1" parent="1">
          <mxGeometry width="50" height="50" relative="1" as="geometry">
            <mxPoint x="420" y="280" as="sourcePoint" />
            <mxPoint x="420" y="120" as="targetPoint" />
          </mxGeometry>
        </mxCell>
        <mxCell id="gFEzy7Q-jeZhdHL1lZaV-8" value="" style="endArrow=none;html=1;rounded=0;" edge="1" parent="1">
          <mxGeometry width="50" height="50" relative="1" as="geometry">
            <mxPoint x="160" y="480" as="sourcePoint" />
            <mxPoint x="340" y="480" as="targetPoint" />
            <Array as="points">
              <mxPoint x="260" y="480" />
              <mxPoint x="260" y="440" />
              <mxPoint x="340" y="440" />
            </Array>
          </mxGeometry>
        </mxCell>
        <mxCell id="gFEzy7Q-jeZhdHL1lZaV-9" value="" style="endArrow=none;dashed=1;html=1;rounded=0;fillColor=#f8cecc;strokeColor=#b85450;strokeWidth=2;" edge="1" parent="1">
          <mxGeometry width="50" height="50" relative="1" as="geometry">
            <mxPoint x="1150" y="360" as="sourcePoint" />
            <mxPoint x="1150" y="160" as="targetPoint" />
          </mxGeometry>
        </mxCell>
        <mxCell id="gFEzy7Q-jeZhdHL1lZaV-10" value="" style="endArrow=none;dashed=1;html=1;rounded=0;fillColor=#f8cecc;strokeColor=#b85450;strokeWidth=2;" edge="1" parent="1">
          <mxGeometry width="50" height="50" relative="1" as="geometry">
            <mxPoint x="1330" y="360" as="sourcePoint" />
            <mxPoint x="1330" y="160" as="targetPoint" />
          </mxGeometry>
        </mxCell>
        <mxCell id="gFEzy7Q-jeZhdHL1lZaV-11" value="" style="endArrow=none;dashed=1;html=1;rounded=0;fillColor=#f8cecc;strokeColor=#b85450;" edge="1" parent="1">
          <mxGeometry width="50" height="50" relative="1" as="geometry">
            <mxPoint x="1510" y="360" as="sourcePoint" />
            <mxPoint x="1510" y="160" as="targetPoint" />
          </mxGeometry>
        </mxCell>
        <mxCell id="gFEzy7Q-jeZhdHL1lZaV-12" value="" style="endArrow=none;dashed=1;html=1;rounded=0;fillColor=#f8cecc;strokeColor=#b85450;" edge="1" parent="1">
          <mxGeometry width="50" height="50" relative="1" as="geometry">
            <mxPoint x="1690" y="360" as="sourcePoint" />
            <mxPoint x="1690" y="160" as="targetPoint" />
          </mxGeometry>
        </mxCell>
        <mxCell id="gFEzy7Q-jeZhdHL1lZaV-13" value="" style="endArrow=none;html=1;rounded=0;" edge="1" parent="1">
          <mxGeometry width="50" height="50" relative="1" as="geometry">
            <mxPoint x="340" y="480" as="sourcePoint" />
            <mxPoint x="500" y="480" as="targetPoint" />
            <Array as="points">
              <mxPoint x="420" y="480" />
              <mxPoint x="420" y="440" />
              <mxPoint x="500" y="440" />
            </Array>
          </mxGeometry>
        </mxCell>
        <mxCell id="gFEzy7Q-jeZhdHL1lZaV-14" value="" style="endArrow=none;html=1;rounded=0;" edge="1" parent="1">
          <mxGeometry width="50" height="50" relative="1" as="geometry">
            <mxPoint x="500" y="480" as="sourcePoint" />
            <mxPoint x="660" y="480" as="targetPoint" />
            <Array as="points">
              <mxPoint x="580" y="480" />
              <mxPoint x="580" y="440" />
              <mxPoint x="660" y="440" />
            </Array>
          </mxGeometry>
        </mxCell>
        <mxCell id="gFEzy7Q-jeZhdHL1lZaV-15" value="" style="endArrow=none;html=1;rounded=0;" edge="1" parent="1">
          <mxGeometry width="50" height="50" relative="1" as="geometry">
            <mxPoint x="660" y="480" as="sourcePoint" />
            <mxPoint x="820" y="480" as="targetPoint" />
            <Array as="points">
              <mxPoint x="740" y="480" />
              <mxPoint x="740" y="440" />
              <mxPoint x="820" y="440" />
            </Array>
          </mxGeometry>
        </mxCell>
        <mxCell id="gFEzy7Q-jeZhdHL1lZaV-16" value="" style="endArrow=none;html=1;rounded=0;" edge="1" parent="1">
          <mxGeometry width="50" height="50" relative="1" as="geometry">
            <mxPoint x="820" y="480" as="sourcePoint" />
            <mxPoint x="980" y="480" as="targetPoint" />
            <Array as="points">
              <mxPoint x="900" y="480" />
              <mxPoint x="900" y="440" />
              <mxPoint x="980" y="440" />
            </Array>
          </mxGeometry>
        </mxCell>
        <mxCell id="gFEzy7Q-jeZhdHL1lZaV-17" value="" style="endArrow=none;html=1;rounded=0;" edge="1" parent="1">
          <mxGeometry width="50" height="50" relative="1" as="geometry">
            <mxPoint x="980" y="480" as="sourcePoint" />
            <mxPoint x="1140" y="480" as="targetPoint" />
            <Array as="points">
              <mxPoint x="1060" y="480" />
              <mxPoint x="1060" y="440" />
              <mxPoint x="1140" y="440" />
            </Array>
          </mxGeometry>
        </mxCell>
        <mxCell id="gFEzy7Q-jeZhdHL1lZaV-18" value="" style="endArrow=none;html=1;rounded=0;" edge="1" parent="1">
          <mxGeometry width="50" height="50" relative="1" as="geometry">
            <mxPoint x="160" y="560" as="sourcePoint" />
            <mxPoint x="340" y="560" as="targetPoint" />
            <Array as="points">
              <mxPoint x="250" y="560" />
              <mxPoint x="250" y="520" />
              <mxPoint x="340" y="520" />
            </Array>
          </mxGeometry>
        </mxCell>
        <mxCell id="gFEzy7Q-jeZhdHL1lZaV-19" value="" style="endArrow=none;html=1;rounded=0;" edge="1" parent="1">
          <mxGeometry width="50" height="50" relative="1" as="geometry">
            <mxPoint x="340" y="560" as="sourcePoint" />
            <mxPoint x="520" y="560" as="targetPoint" />
            <Array as="points">
              <mxPoint x="430" y="560" />
              <mxPoint x="430" y="520" />
              <mxPoint x="520" y="520" />
            </Array>
          </mxGeometry>
        </mxCell>
        <mxCell id="gFEzy7Q-jeZhdHL1lZaV-20" value="" style="endArrow=none;html=1;rounded=0;" edge="1" parent="1">
          <mxGeometry width="50" height="50" relative="1" as="geometry">
            <mxPoint x="520" y="560" as="sourcePoint" />
            <mxPoint x="700" y="560" as="targetPoint" />
            <Array as="points">
              <mxPoint x="610" y="560" />
              <mxPoint x="610" y="520" />
              <mxPoint x="700" y="520" />
            </Array>
          </mxGeometry>
        </mxCell>
        <mxCell id="gFEzy7Q-jeZhdHL1lZaV-21" value="" style="endArrow=none;html=1;rounded=0;" edge="1" parent="1">
          <mxGeometry width="50" height="50" relative="1" as="geometry">
            <mxPoint x="700" y="560" as="sourcePoint" />
            <mxPoint x="880" y="560" as="targetPoint" />
            <Array as="points">
              <mxPoint x="790" y="560" />
              <mxPoint x="790" y="520" />
              <mxPoint x="880" y="520" />
            </Array>
          </mxGeometry>
        </mxCell>
        <mxCell id="gFEzy7Q-jeZhdHL1lZaV-22" value="" style="endArrow=none;html=1;rounded=0;" edge="1" parent="1">
          <mxGeometry width="50" height="50" relative="1" as="geometry">
            <mxPoint x="880" y="560" as="sourcePoint" />
            <mxPoint x="1060" y="560" as="targetPoint" />
            <Array as="points">
              <mxPoint x="970" y="560" />
              <mxPoint x="970" y="520" />
              <mxPoint x="1060" y="520" />
            </Array>
          </mxGeometry>
        </mxCell>
        <mxCell id="gFEzy7Q-jeZhdHL1lZaV-23" value="" style="endArrow=none;html=1;rounded=0;" edge="1" parent="1">
          <mxGeometry width="50" height="50" relative="1" as="geometry">
            <mxPoint x="1061" y="560" as="sourcePoint" />
            <mxPoint x="1241" y="560" as="targetPoint" />
            <Array as="points">
              <mxPoint x="1151" y="560" />
              <mxPoint x="1151" y="520" />
              <mxPoint x="1241" y="520" />
            </Array>
          </mxGeometry>
        </mxCell>
        <mxCell id="gFEzy7Q-jeZhdHL1lZaV-24" value="" style="endArrow=none;html=1;rounded=0;" edge="1" parent="1">
          <mxGeometry width="50" height="50" relative="1" as="geometry">
            <mxPoint x="1140" y="480" as="sourcePoint" />
            <mxPoint x="1300" y="480" as="targetPoint" />
            <Array as="points">
              <mxPoint x="1220" y="480" />
              <mxPoint x="1220" y="440" />
              <mxPoint x="1300" y="440" />
            </Array>
          </mxGeometry>
        </mxCell>
        <mxCell id="gFEzy7Q-jeZhdHL1lZaV-25" value="" style="endArrow=none;html=1;rounded=0;" edge="1" parent="1">
          <mxGeometry width="50" height="50" relative="1" as="geometry">
            <mxPoint x="1241" y="560" as="sourcePoint" />
            <mxPoint x="1421" y="560" as="targetPoint" />
            <Array as="points">
              <mxPoint x="1331" y="560" />
              <mxPoint x="1331" y="520" />
              <mxPoint x="1421" y="520" />
            </Array>
          </mxGeometry>
        </mxCell>
        <mxCell id="gFEzy7Q-jeZhdHL1lZaV-26" value="" style="endArrow=none;html=1;rounded=0;strokeWidth=1;" edge="1" parent="1">
          <mxGeometry width="50" height="50" relative="1" as="geometry">
            <mxPoint x="160" y="640" as="sourcePoint" />
            <mxPoint x="1500" y="640" as="targetPoint" />
            <Array as="points">
              <mxPoint x="250" y="640" />
              <mxPoint x="430" y="640" />
              <mxPoint x="430" y="600" />
              <mxPoint x="1150" y="600" />
              <mxPoint x="1150" y="640" />
            </Array>
          </mxGeometry>
        </mxCell>
        <mxCell id="gFEzy7Q-jeZhdHL1lZaV-27" value="" style="endArrow=none;dashed=1;html=1;rounded=0;fillColor=#f8cecc;strokeColor=#b85450;strokeWidth=2;" edge="1" parent="1">
          <mxGeometry width="50" height="50" relative="1" as="geometry">
            <mxPoint x="250" y="640" as="sourcePoint" />
            <mxPoint x="250" y="440" as="targetPoint" />
          </mxGeometry>
        </mxCell>
        <mxCell id="gFEzy7Q-jeZhdHL1lZaV-28" value="" style="endArrow=none;dashed=1;html=1;rounded=0;fillColor=#f8cecc;strokeColor=#b85450;strokeWidth=2;" edge="1" parent="1">
          <mxGeometry width="50" height="50" relative="1" as="geometry">
            <mxPoint x="430" y="640" as="sourcePoint" />
            <mxPoint x="430" y="440" as="targetPoint" />
          </mxGeometry>
        </mxCell>
        <mxCell id="gFEzy7Q-jeZhdHL1lZaV-29" value="" style="endArrow=none;dashed=1;html=1;rounded=0;fillColor=#f8cecc;strokeColor=#b85450;strokeWidth=2;" edge="1" parent="1">
          <mxGeometry width="50" height="50" relative="1" as="geometry">
            <mxPoint x="610" y="640" as="sourcePoint" />
            <mxPoint x="610" y="440" as="targetPoint" />
          </mxGeometry>
        </mxCell>
        <mxCell id="gFEzy7Q-jeZhdHL1lZaV-30" value="" style="endArrow=none;dashed=1;html=1;rounded=0;fillColor=#f8cecc;strokeColor=#b85450;strokeWidth=2;" edge="1" parent="1">
          <mxGeometry width="50" height="50" relative="1" as="geometry">
            <mxPoint x="790" y="640" as="sourcePoint" />
            <mxPoint x="790" y="440" as="targetPoint" />
          </mxGeometry>
        </mxCell>
        <mxCell id="gFEzy7Q-jeZhdHL1lZaV-31" value="" style="endArrow=none;dashed=1;html=1;rounded=0;fillColor=#f8cecc;strokeColor=#b85450;strokeWidth=2;" edge="1" parent="1">
          <mxGeometry width="50" height="50" relative="1" as="geometry">
            <mxPoint x="970" y="640" as="sourcePoint" />
            <mxPoint x="970" y="440" as="targetPoint" />
          </mxGeometry>
        </mxCell>
        <mxCell id="gFEzy7Q-jeZhdHL1lZaV-32" value="" style="endArrow=none;dashed=1;html=1;rounded=0;fillColor=#f8cecc;strokeColor=#b85450;strokeWidth=2;" edge="1" parent="1">
          <mxGeometry width="50" height="50" relative="1" as="geometry">
            <mxPoint x="1150" y="640" as="sourcePoint" />
            <mxPoint x="1150" y="440" as="targetPoint" />
          </mxGeometry>
        </mxCell>
        <mxCell id="gFEzy7Q-jeZhdHL1lZaV-33" value="" style="endArrow=none;dashed=1;html=1;rounded=0;fillColor=#f8cecc;strokeColor=#b85450;strokeWidth=2;" edge="1" parent="1">
          <mxGeometry width="50" height="50" relative="1" as="geometry">
            <mxPoint x="1330" y="640" as="sourcePoint" />
            <mxPoint x="1330" y="440" as="targetPoint" />
          </mxGeometry>
        </mxCell>
        <mxCell id="gFEzy7Q-jeZhdHL1lZaV-34" value="" style="endArrow=none;html=1;rounded=0;" edge="1" parent="1">
          <mxGeometry width="50" height="50" relative="1" as="geometry">
            <mxPoint x="1299" y="480" as="sourcePoint" />
            <mxPoint x="1459" y="480" as="targetPoint" />
            <Array as="points">
              <mxPoint x="1379" y="480" />
              <mxPoint x="1379" y="440" />
              <mxPoint x="1459" y="440" />
            </Array>
          </mxGeometry>
        </mxCell>
        <mxCell id="gFEzy7Q-jeZhdHL1lZaV-36" value="" style="endArrow=none;html=1;rounded=0;" edge="1" parent="1">
          <mxGeometry width="50" height="50" relative="1" as="geometry">
            <mxPoint x="160" y="880" as="sourcePoint" />
            <mxPoint x="320" y="880" as="targetPoint" />
            <Array as="points">
              <mxPoint x="240" y="880" />
              <mxPoint x="240" y="840" />
              <mxPoint x="320" y="840" />
            </Array>
          </mxGeometry>
        </mxCell>
        <mxCell id="gFEzy7Q-jeZhdHL1lZaV-37" value="" style="endArrow=none;html=1;rounded=0;" edge="1" parent="1">
          <mxGeometry width="50" height="50" relative="1" as="geometry">
            <mxPoint x="320" y="880" as="sourcePoint" />
            <mxPoint x="480" y="880" as="targetPoint" />
            <Array as="points">
              <mxPoint x="400" y="880" />
              <mxPoint x="400" y="840" />
              <mxPoint x="480" y="840" />
            </Array>
          </mxGeometry>
        </mxCell>
        <mxCell id="gFEzy7Q-jeZhdHL1lZaV-38" value="" style="endArrow=none;html=1;rounded=0;" edge="1" parent="1">
          <mxGeometry width="50" height="50" relative="1" as="geometry">
            <mxPoint x="480" y="880" as="sourcePoint" />
            <mxPoint x="640" y="880" as="targetPoint" />
            <Array as="points">
              <mxPoint x="560" y="880" />
              <mxPoint x="560" y="840" />
              <mxPoint x="640" y="840" />
            </Array>
          </mxGeometry>
        </mxCell>
        <mxCell id="gFEzy7Q-jeZhdHL1lZaV-43" value="" style="endArrow=none;html=1;rounded=0;" edge="1" parent="1">
          <mxGeometry width="50" height="50" relative="1" as="geometry">
            <mxPoint x="640" y="880" as="sourcePoint" />
            <mxPoint x="800" y="880" as="targetPoint" />
            <Array as="points">
              <mxPoint x="720" y="880" />
              <mxPoint x="720" y="840" />
              <mxPoint x="800" y="840" />
            </Array>
          </mxGeometry>
        </mxCell>
        <mxCell id="gFEzy7Q-jeZhdHL1lZaV-44" value="" style="endArrow=none;html=1;rounded=0;" edge="1" parent="1">
          <mxGeometry width="50" height="50" relative="1" as="geometry">
            <mxPoint x="800" y="880" as="sourcePoint" />
            <mxPoint x="960" y="880" as="targetPoint" />
            <Array as="points">
              <mxPoint x="880" y="880" />
              <mxPoint x="880" y="840" />
              <mxPoint x="960" y="840" />
            </Array>
          </mxGeometry>
        </mxCell>
        <mxCell id="gFEzy7Q-jeZhdHL1lZaV-45" value="" style="endArrow=none;html=1;rounded=0;" edge="1" parent="1">
          <mxGeometry width="50" height="50" relative="1" as="geometry">
            <mxPoint x="960" y="880" as="sourcePoint" />
            <mxPoint x="1120" y="880" as="targetPoint" />
            <Array as="points">
              <mxPoint x="1040" y="880" />
              <mxPoint x="1040" y="840" />
              <mxPoint x="1120" y="840" />
            </Array>
          </mxGeometry>
        </mxCell>
        <mxCell id="gFEzy7Q-jeZhdHL1lZaV-49" value="" style="endArrow=none;html=1;rounded=0;" edge="1" parent="1">
          <mxGeometry width="50" height="50" relative="1" as="geometry">
            <mxPoint x="160" y="960" as="sourcePoint" />
            <mxPoint x="340" y="960" as="targetPoint" />
            <Array as="points">
              <mxPoint x="260" y="960" />
              <mxPoint x="260" y="920" />
              <mxPoint x="340" y="920" />
            </Array>
          </mxGeometry>
        </mxCell>
        <mxCell id="gFEzy7Q-jeZhdHL1lZaV-50" value="" style="endArrow=none;html=1;rounded=0;" edge="1" parent="1">
          <mxGeometry width="50" height="50" relative="1" as="geometry">
            <mxPoint x="340" y="960" as="sourcePoint" />
            <mxPoint x="500" y="960" as="targetPoint" />
            <Array as="points">
              <mxPoint x="420" y="960" />
              <mxPoint x="420" y="920" />
              <mxPoint x="500" y="920" />
            </Array>
          </mxGeometry>
        </mxCell>
        <mxCell id="gFEzy7Q-jeZhdHL1lZaV-51" value="" style="endArrow=none;html=1;rounded=0;" edge="1" parent="1">
          <mxGeometry width="50" height="50" relative="1" as="geometry">
            <mxPoint x="500" y="960" as="sourcePoint" />
            <mxPoint x="660" y="960" as="targetPoint" />
            <Array as="points">
              <mxPoint x="580" y="960" />
              <mxPoint x="580" y="920" />
              <mxPoint x="660" y="920" />
            </Array>
          </mxGeometry>
        </mxCell>
        <mxCell id="gFEzy7Q-jeZhdHL1lZaV-52" value="" style="endArrow=none;html=1;rounded=0;" edge="1" parent="1">
          <mxGeometry width="50" height="50" relative="1" as="geometry">
            <mxPoint x="660" y="960" as="sourcePoint" />
            <mxPoint x="820" y="960" as="targetPoint" />
            <Array as="points">
              <mxPoint x="740" y="960" />
              <mxPoint x="740" y="920" />
              <mxPoint x="820" y="920" />
            </Array>
          </mxGeometry>
        </mxCell>
        <mxCell id="gFEzy7Q-jeZhdHL1lZaV-53" value="" style="endArrow=none;html=1;rounded=0;" edge="1" parent="1">
          <mxGeometry width="50" height="50" relative="1" as="geometry">
            <mxPoint x="820" y="960" as="sourcePoint" />
            <mxPoint x="980" y="960" as="targetPoint" />
            <Array as="points">
              <mxPoint x="900" y="960" />
              <mxPoint x="900" y="920" />
              <mxPoint x="980" y="920" />
            </Array>
          </mxGeometry>
        </mxCell>
        <mxCell id="gFEzy7Q-jeZhdHL1lZaV-54" value="" style="endArrow=none;html=1;rounded=0;" edge="1" parent="1">
          <mxGeometry width="50" height="50" relative="1" as="geometry">
            <mxPoint x="980" y="960" as="sourcePoint" />
            <mxPoint x="1140" y="960" as="targetPoint" />
            <Array as="points">
              <mxPoint x="1060" y="960" />
              <mxPoint x="1060" y="920" />
              <mxPoint x="1140" y="920" />
            </Array>
          </mxGeometry>
        </mxCell>
        <mxCell id="gFEzy7Q-jeZhdHL1lZaV-55" value="" style="endArrow=none;html=1;rounded=0;" edge="1" parent="1">
          <mxGeometry width="50" height="50" relative="1" as="geometry">
            <mxPoint x="1140" y="960" as="sourcePoint" />
            <mxPoint x="1300" y="960" as="targetPoint" />
            <Array as="points">
              <mxPoint x="1220" y="960" />
              <mxPoint x="1220" y="920" />
              <mxPoint x="1300" y="920" />
            </Array>
          </mxGeometry>
        </mxCell>
        <mxCell id="gFEzy7Q-jeZhdHL1lZaV-56" value="" style="endArrow=none;html=1;rounded=0;" edge="1" parent="1">
          <mxGeometry width="50" height="50" relative="1" as="geometry">
            <mxPoint x="1299" y="960" as="sourcePoint" />
            <mxPoint x="1459" y="960" as="targetPoint" />
            <Array as="points">
              <mxPoint x="1379" y="960" />
              <mxPoint x="1379" y="920" />
              <mxPoint x="1459" y="920" />
            </Array>
          </mxGeometry>
        </mxCell>
        <mxCell id="gFEzy7Q-jeZhdHL1lZaV-57" value="" style="endArrow=none;dashed=1;html=1;rounded=0;strokeWidth=1;" edge="1" parent="1">
          <mxGeometry width="50" height="50" relative="1" as="geometry">
            <mxPoint x="320" y="960" as="sourcePoint" />
            <mxPoint x="320" y="800" as="targetPoint" />
          </mxGeometry>
        </mxCell>
        <mxCell id="gFEzy7Q-jeZhdHL1lZaV-66" value="" style="endArrow=none;dashed=1;html=1;rounded=0;strokeWidth=1;" edge="1" parent="1">
          <mxGeometry width="50" height="50" relative="1" as="geometry">
            <mxPoint x="340" y="960" as="sourcePoint" />
            <mxPoint x="340" y="800" as="targetPoint" />
          </mxGeometry>
        </mxCell>
        <mxCell id="gFEzy7Q-jeZhdHL1lZaV-69" value="" style="endArrow=classic;startArrow=classic;html=1;rounded=0;strokeWidth=0;" edge="1" parent="1">
          <mxGeometry width="50" height="50" relative="1" as="geometry">
            <mxPoint x="320" y="800" as="sourcePoint" />
            <mxPoint x="340" y="800" as="targetPoint" />
            <Array as="points">
              <mxPoint x="330" y="800" />
            </Array>
          </mxGeometry>
        </mxCell>
      </root>
    </mxGraphModel>
  </diagram>
</mxfile>
